<svg xmlns='http://www.w3.org/2000/svg' version='1.1' width='1505px' height='636px'><svg xmlns="http://www.w3.org/2000/svg" id="graphic" fill="currentColor" font-family="Source Sans Pro" width="1490.21875" height="575.678125" x="14.390625" y="59.90625"><g class="facets"><g class="facet" transform="translate(0,0)" opacity="1"><g class="fl-chart"><clipPath class="fl-data-clip-path" id="fl-chart-layout-1-clip-path"><rect x="72.96449898277841" y="9.9" width="1403.253536749728" height="429.2128478843308"/></clipPath><clipPath class="fl-grid-clip-path" id="fl-chart-layout-1-grid-clip-path"><rect x="70.96449898277841" y="7.9" width="1407.253536749728" height="433.2128478843308"/></clipPath><g class="fl-chart-background"><rect class="fl-chart-fill" x="72.96449898277841" y="9.9" width="1403.253536749728" height="429.2128478843308" fill="none"/><image class="fl-chart-image" x="72.96449898277841" y="9.9" width="1403.253536749728" height="429.2128478843308" preserveAspectRatio="none"/><rect class="fl-chart-interaction" style="opacity: 0;" x="72.96449898277841" y="9.9" width="1403.253536749728" height="429.2128478843308"/></g><g class="fl-data-background" clip-path="url(#fl-chart-layout-1-clip-path)"/><g class="fl-gridlines" style="pointer-events: none;" clip-path="url(#fl-chart-layout-1-grid-clip-path)"><g class="fl-gridlines-vertical"/><g class="fl-gridlines-horizontal"><line x1="72.96449898277841" x2="1476.2180357325065" y1="439.1128478843308" y2="439.1128478843308" style="shape-rendering: crispedges; opacity: 1; stroke: rgb(238, 238, 238); stroke-width: 2;"/><line x1="72.96449898277841" x2="1476.2180357325065" y1="403.34511056063656" y2="403.34511056063656" style="shape-rendering: crispedges; opacity: 1; stroke: rgb(238, 238, 238); stroke-width: 2;"/><line x1="72.96449898277841" x2="1476.2180357325065" y1="367.5773732369423" y2="367.5773732369423" style="shape-rendering: crispedges; opacity: 1; stroke: rgb(238, 238, 238); stroke-width: 2;"/><line x1="72.96449898277841" x2="1476.2180357325065" y1="331.80963591324814" y2="331.80963591324814" style="shape-rendering: crispedges; opacity: 1; stroke: rgb(238, 238, 238); stroke-width: 2;"/><line x1="72.96449898277841" x2="1476.2180357325065" y1="296.0418985895539" y2="296.0418985895539" style="shape-rendering: crispedges; opacity: 1; stroke: rgb(238, 238, 238); stroke-width: 2;"/><line x1="72.96449898277841" x2="1476.2180357325065" y1="260.2741612658596" y2="260.2741612658596" style="shape-rendering: crispedges; opacity: 1; stroke: rgb(238, 238, 238); stroke-width: 2;"/><line x1="72.96449898277841" x2="1476.2180357325065" y1="224.50642394216538" y2="224.50642394216538" style="shape-rendering: crispedges; opacity: 1; stroke: rgb(238, 238, 238); stroke-width: 2;"/><line x1="72.96449898277841" x2="1476.2180357325065" y1="188.73868661847115" y2="188.73868661847115" style="shape-rendering: crispedges; opacity: 1; stroke: rgb(238, 238, 238); stroke-width: 2;"/><line x1="72.96449898277841" x2="1476.2180357325065" y1="152.97094929477694" y2="152.97094929477694" style="shape-rendering: crispedges; opacity: 1; stroke: rgb(238, 238, 238); stroke-width: 2;"/><line x1="72.96449898277841" x2="1476.2180357325065" y1="117.2032119710827" y2="117.2032119710827" style="shape-rendering: crispedges; opacity: 1; stroke: rgb(238, 238, 238); stroke-width: 2;"/><line x1="72.96449898277841" x2="1476.2180357325065" y1="81.43547464738845" y2="81.43547464738845" style="shape-rendering: crispedges; opacity: 1; stroke: rgb(238, 238, 238); stroke-width: 2;"/><line x1="72.96449898277841" x2="1476.2180357325065" y1="45.667737323694254" y2="45.667737323694254" style="shape-rendering: crispedges; opacity: 1; stroke: rgb(238, 238, 238); stroke-width: 2;"/><line x1="72.96449898277841" x2="1476.2180357325065" y1="9.9" y2="9.9" style="shape-rendering: crispedges; opacity: 1; stroke: rgb(238, 238, 238); stroke-width: 2;"/></g></g><g class="fl-axes"><g class="fl-x-axes"><g class="fl-axis fl-x-axis fl-bottom-axis"><g class="fl-axis-line"><line x1="72.96449898277841" x2="1476.2180357325065" y1="439.1128478843308" y2="439.1128478843308" style="shape-rendering: crispedges; stroke-linecap: square; stroke-width: 2; opacity: 1; stroke: rgb(238, 238, 238);"/></g><g class="fl-axis-ticks"><g transform="translate(119.73961639404297, 439.11285400390625)" style="opacity: 1;"><line y2="9.6" style="stroke: rgb(238, 238, 238); stroke-width: 2;"/><text text-anchor="end" transform="translate(0,14.399999999999999) rotate(-45,0,0) translate(0,11.404800000000002)" style="user-select: none; cursor: default; fill: rgb(170, 170, 170); font-size: 17.28px; font-weight: normal;"><tspan x="0" dy="0">8-14 Şubat 2021</tspan></text></g><g transform="translate(213.28985595703125, 439.11285400390625)" style="opacity: 1;"><line y2="9.6" style="stroke: rgb(238, 238, 238); stroke-width: 2;"/><text text-anchor="end" transform="translate(0,14.399999999999999) rotate(-45,0,0) translate(0,11.404800000000002)" style="user-select: none; cursor: default; fill: rgb(170, 170, 170); font-size: 17.28px; font-weight: normal;"><tspan x="0" dy="0">15-21 Şubat 2021</tspan></text></g><g transform="translate(306.840087890625, 439.11285400390625)" style="opacity: 1;"><line y2="9.6" style="stroke: rgb(238, 238, 238); stroke-width: 2;"/><text text-anchor="end" transform="translate(0,14.399999999999999) rotate(-45,0,0) translate(0,11.404800000000002)" style="user-select: none; cursor: default; fill: rgb(170, 170, 170); font-size: 17.28px; font-weight: normal;"><tspan x="0" dy="0">20-26 Şubat 2021</tspan></text></g><g transform="translate(400.39031982421875, 439.11285400390625)" style="opacity: 1;"><line y2="9.6" style="stroke: rgb(238, 238, 238); stroke-width: 2;"/><text text-anchor="end" transform="translate(0,14.399999999999999) rotate(-45,0,0) translate(0,11.404800000000002)" style="user-select: none; cursor: default; fill: rgb(170, 170, 170); font-size: 17.28px; font-weight: normal;"><tspan x="0" dy="0">27 Şubat-5 Mart 2021</tspan></text></g><g transform="translate(493.9405517578125, 439.11285400390625)" style="opacity: 1;"><line y2="9.6" style="stroke: rgb(238, 238, 238); stroke-width: 2;"/><text text-anchor="end" transform="translate(0,14.399999999999999) rotate(-45,0,0) translate(0,11.404800000000002)" style="user-select: none; cursor: default; fill: rgb(170, 170, 170); font-size: 17.28px; font-weight: normal;"><tspan x="0" dy="0">6-12 Mart 2021</tspan></text></g><g transform="translate(587.4907836914062, 439.11285400390625)" style="opacity: 1;"><line y2="9.6" style="stroke: rgb(238, 238, 238); stroke-width: 2;"/><text text-anchor="end" transform="translate(0,14.399999999999999) rotate(-45,0,0) translate(0,11.404800000000002)" style="user-select: none; cursor: default; fill: rgb(170, 170, 170); font-size: 17.28px; font-weight: normal;"><tspan x="0" dy="0">13-19 Mart 2021</tspan></text></g><g transform="translate(681.041015625, 439.11285400390625)" style="opacity: 1;"><line y2="9.6" style="stroke: rgb(238, 238, 238); stroke-width: 2;"/><text text-anchor="end" transform="translate(0,14.399999999999999) rotate(-45,0,0) translate(0,11.404800000000002)" style="user-select: none; cursor: default; fill: rgb(170, 170, 170); font-size: 17.28px; font-weight: normal;"><tspan x="0" dy="0">20-26 Mart 2021</tspan></text></g><g transform="translate(774.5912475585938, 439.11285400390625)" style="opacity: 1;"><line y2="9.6" style="stroke: rgb(238, 238, 238); stroke-width: 2;"/><text text-anchor="end" transform="translate(0,14.399999999999999) rotate(-45,0,0) translate(0,11.404800000000002)" style="user-select: none; cursor: default; fill: rgb(170, 170, 170); font-size: 17.28px; font-weight: normal;"><tspan x="0" dy="0">27 Mart-2 Nisan 2021</tspan></text></g><g transform="translate(868.1414794921875, 439.11285400390625)" style="opacity: 1;"><line y2="9.6" style="stroke: rgb(238, 238, 238); stroke-width: 2;"/><text text-anchor="end" transform="translate(0,14.399999999999999) rotate(-45,0,0) translate(0,11.404800000000002)" style="user-select: none; cursor: default; fill: rgb(170, 170, 170); font-size: 17.28px; font-weight: normal;"><tspan x="0" dy="0">3-9 Nisan 2021</tspan></text></g><g transform="translate(961.6917114257812, 439.11285400390625)" style="opacity: 1;"><line y2="9.6" style="stroke: rgb(238, 238, 238); stroke-width: 2;"/><text text-anchor="end" transform="translate(0,14.399999999999999) rotate(-45,0,0) translate(0,11.404800000000002)" style="user-select: none; cursor: default; fill: rgb(170, 170, 170); font-size: 17.28px; font-weight: normal;"><tspan x="0" dy="0">10-16 Nisan 2021</tspan></text></g><g transform="translate(1055.241943359375, 439.11285400390625)" style="opacity: 1;"><line y2="9.6" style="stroke: rgb(238, 238, 238); stroke-width: 2;"/><text text-anchor="end" transform="translate(0,14.399999999999999) rotate(-45,0,0) translate(0,11.404800000000002)" style="user-select: none; cursor: default; fill: rgb(170, 170, 170); font-size: 17.28px; font-weight: normal;"><tspan x="0" dy="0">17-23 Nisan 2021</tspan></text></g><g transform="translate(1148.792236328125, 439.11285400390625)" style="opacity: 1;"><line y2="9.6" style="stroke: rgb(238, 238, 238); stroke-width: 2;"/><text text-anchor="end" transform="translate(0,14.399999999999999) rotate(-45,0,0) translate(0,11.404800000000002)" style="user-select: none; cursor: default; fill: rgb(170, 170, 170); font-size: 17.28px; font-weight: normal;"><tspan x="0" dy="0">24-30 Nisan 2021</tspan></text></g><g transform="translate(1242.3424072265625, 439.11285400390625)" style="opacity: 1;"><line y2="9.6" style="stroke: rgb(238, 238, 238); stroke-width: 2;"/><text text-anchor="end" transform="translate(0,14.399999999999999) rotate(-45,0,0) translate(0,11.404800000000002)" style="user-select: none; cursor: default; fill: rgb(170, 170, 170); font-size: 17.28px; font-weight: normal;"><tspan x="0" dy="0">1-7 Mayıs 2021</tspan></text></g><g transform="translate(1335.8927001953125, 439.11285400390625)" style="opacity: 1;"><line y2="9.6" style="stroke: rgb(238, 238, 238); stroke-width: 2;"/><text text-anchor="end" transform="translate(0,14.399999999999999) rotate(-45,0,0) translate(0,11.404800000000002)" style="user-select: none; cursor: default; fill: rgb(170, 170, 170); font-size: 17.28px; font-weight: normal;"><tspan x="0" dy="0">8-14 Mayıs 2021</tspan></text></g><g transform="translate(1429.44287109375, 439.11285400390625)" style="opacity: 1;"><line y2="9.6" style="stroke: rgb(238, 238, 238); stroke-width: 2;"/><text text-anchor="end" transform="translate(0,14.399999999999999) rotate(-45,0,0) translate(0,11.404800000000002)" style="user-select: none; cursor: default; fill: rgb(170, 170, 170); font-size: 17.28px; font-weight: normal;"><tspan x="0" dy="0">15-21 Mayıs 2021</tspan></text></g></g><g class="fl-axis-title"/></g><g class="fl-axis fl-x-axis fl-top-axis"><g class="fl-axis-line"/><g class="fl-axis-ticks"/><g class="fl-axis-title"/></g></g><g class="fl-y-axes"><g class="fl-axis fl-y-axis fl-left-axis"><g class="fl-axis-line"><line x1="72.96449898277841" x2="72.96449898277841" y1="9.9" y2="439.1128478843308" style="shape-rendering: crispedges; stroke-linecap: square; stroke-width: 2; opacity: 1; stroke: rgb(238, 238, 238);"/></g><g class="fl-axis-ticks"><g transform="translate(72.9645004272461, 439.11285400390625)" style="opacity: 1;"><line x2="-9.6" style="stroke: rgb(238, 238, 238); stroke-width: 2;"/><text text-anchor="end" transform="translate(-14.399999999999999,5.702400000000001)" style="user-select: none; cursor: default; fill: rgb(170, 170, 170); font-size: 17.28px; font-weight: normal;"><tspan x="0" dy="0">0</tspan></text></g><g transform="translate(72.9645004272461, 9.899999618530273)" style="opacity: 1;"><line x2="-9.6" style="stroke: rgb(238, 238, 238); stroke-width: 2;"/><text text-anchor="end" transform="translate(-14.399999999999999,5.702400000000001)" style="user-select: none; cursor: default; fill: rgb(170, 170, 170); font-size: 17.28px; font-weight: normal;"><tspan x="0" dy="0">600</tspan></text></g><g transform="translate(72.9645004272461, 81.43547821044922)" style="opacity: 1;"><line x2="-9.6" style="stroke: rgb(238, 238, 238); stroke-width: 2;"/><text text-anchor="end" transform="translate(-14.399999999999999,5.702400000000001)" style="user-select: none; cursor: default; fill: rgb(170, 170, 170); font-size: 17.28px; font-weight: normal;"><tspan x="0" dy="0">500</tspan></text></g><g transform="translate(72.9645004272461, 152.970947265625)" style="opacity: 1;"><line x2="-9.6" style="stroke: rgb(238, 238, 238); stroke-width: 2;"/><text text-anchor="end" transform="translate(-14.399999999999999,5.702400000000001)" style="user-select: none; cursor: default; fill: rgb(170, 170, 170); font-size: 17.28px; font-weight: normal;"><tspan x="0" dy="0">400</tspan></text></g><g transform="translate(72.9645004272461, 224.5064239501953)" style="opacity: 1;"><line x2="-9.6" style="stroke: rgb(238, 238, 238); stroke-width: 2;"/><text text-anchor="end" transform="translate(-14.399999999999999,5.702400000000001)" style="user-select: none; cursor: default; fill: rgb(170, 170, 170); font-size: 17.28px; font-weight: normal;"><tspan x="0" dy="0">300</tspan></text></g><g transform="translate(72.9645004272461, 296.0419006347656)" style="opacity: 1;"><line x2="-9.6" style="stroke: rgb(238, 238, 238); stroke-width: 2;"/><text text-anchor="end" transform="translate(-14.399999999999999,5.702400000000001)" style="user-select: none; cursor: default; fill: rgb(170, 170, 170); font-size: 17.28px; font-weight: normal;"><tspan x="0" dy="0">200</tspan></text></g><g transform="translate(72.9645004272461, 367.5773620605469)" style="opacity: 1;"><line x2="-9.6" style="stroke: rgb(238, 238, 238); stroke-width: 2;"/><text text-anchor="end" transform="translate(-14.399999999999999,5.702400000000001)" style="user-select: none; cursor: default; fill: rgb(170, 170, 170); font-size: 17.28px; font-weight: normal;"><tspan x="0" dy="0">100</tspan></text></g><g transform="translate(72.9645004272461, 403.3451232910156)" style="opacity: 1;"><line x2="-9.6" style="stroke: rgb(238, 238, 238); stroke-width: 2;"/><text text-anchor="end" transform="translate(-14.399999999999999,5.702400000000001)" style="user-select: none; cursor: default; fill: rgb(170, 170, 170); font-size: 17.28px; font-weight: normal;"><tspan x="0" dy="0">50</tspan></text></g><g transform="translate(72.9645004272461, 45.6677360534668)" style="opacity: 1;"><line x2="-9.6" style="stroke: rgb(238, 238, 238); stroke-width: 2;"/><text text-anchor="end" transform="translate(-14.399999999999999,5.702400000000001)" style="user-select: none; cursor: default; fill: rgb(170, 170, 170); font-size: 17.28px; font-weight: normal;"><tspan x="0" dy="0">550</tspan></text></g><g transform="translate(72.9645004272461, 117.20320892333984)" style="opacity: 1;"><line x2="-9.6" style="stroke: rgb(238, 238, 238); stroke-width: 2;"/><text text-anchor="end" transform="translate(-14.399999999999999,5.702400000000001)" style="user-select: none; cursor: default; fill: rgb(170, 170, 170); font-size: 17.28px; font-weight: normal;"><tspan x="0" dy="0">450</tspan></text></g><g transform="translate(72.9645004272461, 188.7386932373047)" style="opacity: 1;"><line x2="-9.6" style="stroke: rgb(238, 238, 238); stroke-width: 2;"/><text text-anchor="end" transform="translate(-14.399999999999999,5.702400000000001)" style="user-select: none; cursor: default; fill: rgb(170, 170, 170); font-size: 17.28px; font-weight: normal;"><tspan x="0" dy="0">350</tspan></text></g><g transform="translate(72.9645004272461, 260.274169921875)" style="opacity: 1;"><line x2="-9.6" style="stroke: rgb(238, 238, 238); stroke-width: 2;"/><text text-anchor="end" transform="translate(-14.399999999999999,5.702400000000001)" style="user-select: none; cursor: default; fill: rgb(170, 170, 170); font-size: 17.28px; font-weight: normal;"><tspan x="0" dy="0">250</tspan></text></g><g transform="translate(72.9645004272461, 331.80963134765625)" style="opacity: 1;"><line x2="-9.6" style="stroke: rgb(238, 238, 238); stroke-width: 2;"/><text text-anchor="end" transform="translate(-14.399999999999999,5.702400000000001)" style="user-select: none; cursor: default; fill: rgb(170, 170, 170); font-size: 17.28px; font-weight: normal;"><tspan x="0" dy="0">150</tspan></text></g></g><g class="fl-axis-title"/></g><g class="fl-axis fl-y-axis fl-right-axis"><g class="fl-axis-line"/><g class="fl-axis-ticks"/><g class="fl-axis-title"/></g></g></g><g class="fl-data-foreground" clip-path="url(#fl-chart-layout-1-clip-path)"/></g><g class="facet-title" transform="translate(0, 0)"><rect class="facet-title-bg" height="0" fill="#eeeeee" x="72.96449898277841" clip-path="url(#facet-clip-0)"/><text class="facet-title-text" font-size="24" font-weight="bold" dx="0" dy="0" x="72.96449898277841" clip-path="url(#facet-clip-0)" opacity="0"/></g><clipPath class="facet-clip" id="facet-clip-0"><rect transform="translate(-14.399999999999999, -14.399999999999999)" width="1505.0180357325064" height="584.678125"/></clipPath></g></g><g class="annotations below"><g class="axis-highlights" transform="translate(0, 0)" style="opacity: 1;"/></g><g id="areas"><g class="series" pointer-events="none"><path class="area" transform="translate(0,0)" fill-opacity="0.7" fill="rgb(251, 180, 174)" clip-path="url(#clip-0-0)" d="M119.73961687443601,439.1128478843308C150.92302880220774,439.1128478843308,182.10644072997948,439.1128478843308,213.28985265775123,439.1128478843308C244.47326458552297,439.1128478843308,275.6566765132947,439.1128478843308,306.8400884410664,439.1128478843308C338.02350036883814,439.1128478843308,369.2069122966099,439.1128478843308,400.39032422438163,439.1128478843308C431.57373615215334,439.1128478843308,462.7571480799251,439.1128478843308,493.94056000769683,439.1128478843308C525.1239719354686,439.1128478843308,556.3073838632403,439.1128478843308,587.490795791012,439.1128478843308C618.6742077187838,439.1128478843308,649.8576196465555,439.1128478843308,681.0410315743272,439.1128478843308C712.224443502099,439.1128478843308,743.4078554298707,439.1128478843308,774.5912673576424,439.1128478843308C805.7746792854142,439.1128478843308,836.9580912131859,439.1128478843308,868.1415031409576,439.1128478843308C899.3249150687294,439.1128478843308,930.5083269965011,439.1128478843308,961.6917389242728,439.1128478843308C992.8751508520446,439.1128478843308,1024.0585627798164,439.1128478843308,1055.241974707588,439.1128478843308C1086.4253866353597,439.1128478843308,1117.6087985631316,439.1128478843308,1148.7922104909032,439.1128478843308C1179.975622418675,439.1128478843308,1211.1590343464468,439.1128478843308,1242.3424462742184,439.1128478843308C1273.52585820199,439.1128478843308,1304.709270129762,439.1128478843308,1335.8926820575336,439.1128478843308C1367.0760939853053,439.1128478843308,1398.2595059130772,439.1128478843308,1429.4429178408488,439.1128478843308L1429.4429178408488,374.68799941689275C1398.2595059130772,372.97234028326625,1367.0760939853053,371.2566811496397,1335.8926820575336,364.39404461513357C1304.709270129762,357.53140808062744,1273.52585820199,318.1332454185782,1242.3424462742184,292.42935711986075C1211.1590343464468,266.7254688211433,1179.975622418675,250.17573676146998,1148.7922104909032,210.17071482282876C1117.6087985631316,170.16569288418754,1086.4253866353597,63.463378900142885,1055.241974707588,52.39922548801348C1024.0585627798164,41.33507207588407,992.8751508520446,35.80299536981937,961.6917389242728,35.80299536981937C930.5083269965011,35.80299536981937,899.3249150687294,55.93069341977292,868.1415031409576,78.57405566149295C836.9580912131859,101.21741790321298,805.7746792854142,145.35242124483008,774.5912673576424,171.66316882013956C743.4078554298707,197.97391639544904,712.224443502099,208.6195872808912,681.0410315743272,236.4385411133498C649.8576196465555,264.2574949458084,618.6742077187838,315.84530248777264,587.490795791012,338.5768918148911C556.3073838632403,361.30848114200955,525.1239719354686,362.41728099904407,493.94056000769683,372.82807707606065C462.7571480799251,383.23887315307724,431.57373615215334,397.7653435381403,400.39032422438163,401.04166827699066C369.2069122966099,404.317993015841,338.02350036883814,404.96896583513217,306.8400884410664,405.9561553852662C275.6566765132947,406.9433449354002,244.47326458552297,406.7895436649083,213.28985265775123,407.4369397104672C182.10644072997948,408.08433575602606,150.92302880220774,408.9624337073227,119.73961687443601,409.8405316586194Z" clip-path-id="0-0"/></g></g><g id="lines"><g class="series"><clipPath id="clip-0-0"><rect width="1403.253536749728" x="72.96449898277841" y="6.0600000000000005" height="436.89284788433093"/></clipPath><path class="line" opacity="1" pointer-events="none" fill="none" stroke="rgb(251, 180, 174)" stroke-width="3.84" transform="translate(0,0)" clip-path="url(#clip-0-0)" clip-path-id="0-0" d="M119.73961687443601,409.8405316586194C150.92302880220774,408.9624337073227,182.10644072997948,408.08433575602606,213.28985265775123,407.4369397104672C244.47326458552297,406.7895436649083,275.6566765132947,406.9433449354002,306.8400884410664,405.9561553852662C338.02350036883814,404.96896583513217,369.2069122966099,404.317993015841,400.39032422438163,401.04166827699066C431.57373615215334,397.7653435381403,462.7571480799251,383.23887315307724,493.94056000769683,372.82807707606065C525.1239719354686,362.41728099904407,556.3073838632403,361.30848114200955,587.490795791012,338.5768918148911C618.6742077187838,315.84530248777264,649.8576196465555,264.2574949458084,681.0410315743272,236.4385411133498C712.224443502099,208.6195872808912,743.4078554298707,197.97391639544904,774.5912673576424,171.66316882013956C805.7746792854142,145.35242124483008,836.9580912131859,101.21741790321298,868.1415031409576,78.57405566149295C899.3249150687294,55.93069341977292,930.5083269965011,35.80299536981937,961.6917389242728,35.80299536981937C992.8751508520446,35.80299536981937,1024.0585627798164,41.33507207588407,1055.241974707588,52.39922548801348C1086.4253866353597,63.463378900142885,1117.6087985631316,170.16569288418754,1148.7922104909032,210.17071482282876C1179.975622418675,250.17573676146998,1211.1590343464468,266.7254688211433,1242.3424462742184,292.42935711986075C1273.52585820199,318.1332454185782,1304.709270129762,357.53140808062744,1335.8926820575336,364.39404461513357C1367.0760939853053,371.2566811496397,1398.2595059130772,372.97234028326625,1429.4429178408488,374.68799941689275"/></g></g><g id="data-points"><g class="series" transform="translate(0,0)" clip-path="url(#facet-clip-0)"><path class="data-point" visibility="visible" fill="rgb(251, 180, 174)" data-type="point" transform="translate(0, 0)" d="M114.93961687443601,409.8405316586194A4.8,4.8,0,1,1,124.539616874436,409.8405316586194A4.8,4.8,0,1,1,114.93961687443601,409.8405316586194Z" opacity="1" id="point-0-0"/><path class="data-point" visibility="visible" fill="rgb(251, 180, 174)" data-type="point" transform="translate(0, 0)" d="M208.48985265775121,407.4369397104672A4.8,4.8,0,1,1,218.08985265775124,407.4369397104672A4.8,4.8,0,1,1,208.48985265775121,407.4369397104672Z" opacity="1" id="point-0-1"/><path class="data-point" visibility="visible" fill="rgb(251, 180, 174)" data-type="point" transform="translate(0, 0)" d="M302.0400884410664,405.9561553852662A4.8,4.8,0,1,1,311.64008844106644,405.9561553852662A4.8,4.8,0,1,1,302.0400884410664,405.9561553852662Z" opacity="1" id="point-0-2"/><path class="data-point" visibility="visible" fill="rgb(251, 180, 174)" data-type="point" transform="translate(0, 0)" d="M395.5903242243816,401.04166827699066A4.8,4.8,0,1,1,405.19032422438164,401.04166827699066A4.8,4.8,0,1,1,395.5903242243816,401.04166827699066Z" opacity="1" id="point-0-3"/><path class="data-point" visibility="visible" fill="rgb(251, 180, 174)" data-type="point" transform="translate(0, 0)" d="M489.1405600076968,372.82807707606065A4.8,4.8,0,1,1,498.74056000769684,372.82807707606065A4.8,4.8,0,1,1,489.1405600076968,372.82807707606065Z" opacity="1" id="point-0-4"/><path class="data-point" visibility="visible" fill="rgb(251, 180, 174)" data-type="point" transform="translate(0, 0)" d="M582.6907957910121,338.5768918148911A4.8,4.8,0,1,1,592.290795791012,338.5768918148911A4.8,4.8,0,1,1,582.6907957910121,338.5768918148911Z" opacity="1" id="point-0-5"/><path class="data-point" visibility="visible" fill="rgb(251, 180, 174)" data-type="point" transform="translate(0, 0)" d="M676.2410315743273,236.4385411133498A4.8,4.8,0,1,1,685.8410315743272,236.4385411133498A4.8,4.8,0,1,1,676.2410315743273,236.4385411133498Z" opacity="1" id="point-0-6"/><path class="data-point" visibility="visible" fill="rgb(251, 180, 174)" data-type="point" transform="translate(0, 0)" d="M769.7912673576425,171.66316882013956A4.8,4.8,0,1,1,779.3912673576424,171.66316882013956A4.8,4.8,0,1,1,769.7912673576425,171.66316882013956Z" opacity="1" id="point-0-7"/><path class="data-point" visibility="visible" fill="rgb(251, 180, 174)" data-type="point" transform="translate(0, 0)" d="M863.3415031409577,78.57405566149295A4.8,4.8,0,1,1,872.9415031409576,78.57405566149295A4.8,4.8,0,1,1,863.3415031409577,78.57405566149295Z" opacity="1" id="point-0-8"/><path class="data-point" visibility="visible" fill="rgb(251, 180, 174)" data-type="point" transform="translate(0, 0)" d="M956.8917389242729,35.80299536981937A4.8,4.8,0,1,1,966.4917389242728,35.80299536981937A4.8,4.8,0,1,1,956.8917389242729,35.80299536981937Z" opacity="1" id="point-0-9"/><path class="data-point" visibility="visible" fill="rgb(251, 180, 174)" data-type="point" transform="translate(0, 0)" d="M1050.441974707588,52.39922548801348A4.8,4.8,0,1,1,1060.041974707588,52.39922548801348A4.8,4.8,0,1,1,1050.441974707588,52.39922548801348Z" opacity="1" id="point-0-10"/><path class="data-point" visibility="visible" fill="rgb(251, 180, 174)" data-type="point" transform="translate(0, 0)" d="M1143.9922104909033,210.17071482282876A4.8,4.8,0,1,1,1153.5922104909032,210.17071482282876A4.8,4.8,0,1,1,1143.9922104909033,210.17071482282876Z" opacity="1" id="point-0-11"/><path class="data-point" visibility="visible" fill="rgb(251, 180, 174)" data-type="point" transform="translate(0, 0)" d="M1237.5424462742185,292.42935711986075A4.8,4.8,0,1,1,1247.1424462742184,292.42935711986075A4.8,4.8,0,1,1,1237.5424462742185,292.42935711986075Z" opacity="1" id="point-0-12"/><path class="data-point" visibility="visible" fill="rgb(251, 180, 174)" data-type="point" transform="translate(0, 0)" d="M1331.0926820575337,364.39404461513357A4.8,4.8,0,1,1,1340.6926820575336,364.39404461513357A4.8,4.8,0,1,1,1331.0926820575337,364.39404461513357Z" opacity="1" id="point-0-13"/><path class="data-point" visibility="visible" fill="rgb(251, 180, 174)" data-type="point" transform="translate(0, 0)" d="M1424.642917840849,374.68799941689275A4.8,4.8,0,1,1,1434.2429178408488,374.68799941689275A4.8,4.8,0,1,1,1424.642917840849,374.68799941689275Z" opacity="1" id="point-0-14"/></g></g><g id="lines-secondary"/><g id="data-point-labels"><g class="series" transform="translate(0,0)" clip-path="url(#facet-clip-0)"/></g><g id="stack-labels"/><g class="annotations above"><g class="axis-highlights" transform="translate(0, 0)" style="opacity: 1;"/></g></svg><svg xmlns="http://www.w3.org/2000/svg" class="fl-annotations" x="14.390625" y="59.90625"><defs/><g class="fl-annotations-cursor inner-outline"><circle r="16"/><line x1="-6" x2="6"/><line y1="-6" y2="6"/></g><g class="fl-annotations-cursor"><circle r="16"/><line x1="-6" x2="6"/><line y1="-6" y2="6"/></g></svg></svg>